<?xml version="1.0" encoding="UTF-8"?>
<svg height="404.63" width="1000" xmlns="http://www.w3.org/2000/svg">
 <metadata/>
 <g fill="#008373" transform="translate(312 -795.67)">
  <path d="m-311.5 796.169 80.6273 28.364v283.808l113.567-65.5599-55.6796-26.1246-35.1274-87.4307 178.939 62.8645v91.3952l-201.654 116.31-80.6733-44.875z"/>
  <g transform="matrix(8.65306 0 0 8.65306 -2616.69 -11921.9)">
   <path d="m313.016 1507.1v-28.0078h7.96875c2.42187.0001 4.34244.5925 5.76172 1.7774 1.41926 1.1849 2.12889 2.7279 2.12891 4.6289-.00002 1.5885-.42971 2.9688-1.28906 4.1406-.85939 1.1719-2.04429 2.0052-3.55469 2.5v.078c1.888.2214 3.39842.9343 4.53125 2.1387 1.13279 1.2044 1.6992 2.7702 1.69922 4.6973-.00002 2.3958-.8594 4.3359-2.57813 5.8203-1.71876 1.4844-3.88673 2.2265-6.5039 2.2265zm3.28125-25.039v9.043h3.35938c1.79686 0 3.20962-.433 4.23828-1.2989 1.02863-.8658 1.54295-2.0865 1.54297-3.6621-.00002-2.7213-1.79038-4.082-5.37109-4.082zm0 11.9922v10.0781h4.45313c1.92707 0 3.42121-.4557 4.48242-1.3672 1.06118-.9114 1.59178-2.1614 1.5918-3.75-.00002-3.3073-2.25262-4.9609-6.75781-4.9609z"/>
   <path d="m336.08 1482.65c-.57292 0-1.0612-.1953-1.46484-.5859-.40365-.3906-.60547-.8854-.60547-1.4844 0-.5989.20182-1.097.60547-1.4941.40364-.3971.89192-.5957 1.46484-.5957.58593 0 1.08398.1986 1.49414.5957.41015.3971.61523.8952.61524 1.4941-.00001.573-.20509 1.0612-.61524 1.4649-.41016.4036-.90821.6054-1.49414.6054zm1.5625 24.4474h-3.20312v-19.8474h3.20312z"/>
   <path d="m359.405 1507.1h-3.20313v-11.2601c0-4.2448-1.42999-6.3672-4.52893-6.3672-1.60158 0-2.92644.6022-3.97461 1.8066-1.04819 1.2045-1.57227 2.7247-1.57227 4.5606v11.2601h-3.20312v-19.8473h3.20312v3.2522h.0781c1.51041-2.5261 3.6629-3.7275 6.443-3.7275 2.18748 0 3.86066.7064 5.01953 2.1191 1.15883 1.4128 1.73828 3.4538 1.73828 6.1231z"/>
   <path d="m381.852 1505.4c0 7.3437-3.51564 11.0156-10.5469 11.0156-2.47396 0-4.51337-.4405-6.36232-1.378l.84027-2.7464s2.17127 1.4431 5.48299 1.4431c4.92186 0 7.38281-2.5703 7.38281-7.8046v-2.1654h-.0781c-1.52345 2.5521-3.66907 3.7952-6.72895 3.7952-2.48699 0-4.48894-.7493-6.00586-2.5266-1.51693-1.7774-2.27539-4.1634-2.27539-7.1582 0-3.3984.81705-6.1003 2.45117-8.1055 1.63411-2.0052 3.87044-3.0078 6.70899-3.0078 2.6953 0 4.54794 1.0807 5.85004 3.2422h.0781v-2.7602h3.20313zm-3.20313-7.3522v-2.7899c0-1.5886-.53712-2.9492-1.61132-4.0821-1.07424-1.1328-2.31919-1.6992-3.92074-1.6992-1.97917 0-3.52865.7194-4.64843 2.1582-1.1198 1.4388-1.6797 3.4538-1.67969 6.0449-.00001 2.2266.5371 3.8479 1.61133 5.1825 1.07421 1.3347 2.49673 2.002 4.26758 2.002 1.79686 0 3.16551-.638 4.29182-1.9141 1.12629-1.276 1.68945-2.9101 1.68945-4.9023z"/>
  </g>
 </g>
</svg>
